<?xml version="1.0" encoding="iso-8859-1"?>
<!-- Uploaded to: SVG Repo, www.svgrepo.com, Generator: SVG Repo Mixer Tools -->
<svg version="1.1" id="Layer_1" xmlns="http://www.w3.org/2000/svg" xmlns:xlink="http://www.w3.org/1999/xlink" 
	 viewBox="0 0 512 512" xml:space="preserve">
<circle style="fill:#4AB8A1;" cx="256" cy="256" r="256"/>
<rect x="96" y="96" style="fill:#99602E;" width="320" height="320"/>
<rect x="112" y="112" style="fill:#242424;" width="288" height="288"/>
<g>
	<rect x="112" y="112" style="fill:#F5F5F5;" width="24" height="24"/>
	<rect x="160" y="112" style="fill:#F5F5F5;" width="24" height="24"/>
	<rect x="208" y="112" style="fill:#F5F5F5;" width="24" height="24"/>
	<rect x="256" y="112" style="fill:#F5F5F5;" width="24" height="24"/>
	<rect x="304" y="112" style="fill:#F5F5F5;" width="24" height="24"/>
	<rect x="352" y="112" style="fill:#F5F5F5;" width="24" height="24"/>
	<rect x="136" y="136" style="fill:#F5F5F5;" width="24" height="24"/>
	<rect x="184" y="136" style="fill:#F5F5F5;" width="24" height="24"/>
	<rect x="232" y="136" style="fill:#F5F5F5;" width="24" height="24"/>
	<rect x="280" y="136" style="fill:#F5F5F5;" width="24" height="24"/>
	<rect x="328" y="136" style="fill:#F5F5F5;" width="24" height="24"/>
	<rect x="376" y="136" style="fill:#F5F5F5;" width="24" height="24"/>
	<rect x="112" y="160" style="fill:#F5F5F5;" width="24" height="24"/>
	<rect x="160" y="160" style="fill:#F5F5F5;" width="24" height="24"/>
	<rect x="208" y="160" style="fill:#F5F5F5;" width="24" height="24"/>
	<rect x="256" y="160" style="fill:#F5F5F5;" width="24" height="24"/>
	<rect x="304" y="160" style="fill:#F5F5F5;" width="24" height="24"/>
	<rect x="352" y="160" style="fill:#F5F5F5;" width="24" height="24"/>
	<rect x="136" y="184" style="fill:#F5F5F5;" width="24" height="24"/>
	<rect x="184" y="184" style="fill:#F5F5F5;" width="24" height="24"/>
	<rect x="232" y="184" style="fill:#F5F5F5;" width="24" height="24"/>
	<rect x="280" y="184" style="fill:#F5F5F5;" width="24" height="24"/>
	<rect x="328" y="184" style="fill:#F5F5F5;" width="24" height="24"/>
	<rect x="376" y="184" style="fill:#F5F5F5;" width="24" height="24"/>
	<rect x="112" y="208" style="fill:#F5F5F5;" width="24" height="24"/>
	<rect x="160" y="208" style="fill:#F5F5F5;" width="24" height="24"/>
	<rect x="208" y="208" style="fill:#F5F5F5;" width="24" height="24"/>
	<rect x="256" y="208" style="fill:#F5F5F5;" width="24" height="24"/>
	<rect x="304" y="208" style="fill:#F5F5F5;" width="24" height="24"/>
	<rect x="352" y="208" style="fill:#F5F5F5;" width="24" height="24"/>
	<rect x="136" y="232" style="fill:#F5F5F5;" width="24" height="24"/>
	<rect x="184" y="232" style="fill:#F5F5F5;" width="24" height="24"/>
	<rect x="232" y="232" style="fill:#F5F5F5;" width="24" height="24"/>
	<rect x="280" y="232" style="fill:#F5F5F5;" width="24" height="24"/>
	<rect x="328" y="232" style="fill:#F5F5F5;" width="24" height="24"/>
	<rect x="376" y="232" style="fill:#F5F5F5;" width="24" height="24"/>
	<rect x="112" y="256" style="fill:#F5F5F5;" width="24" height="24"/>
	<rect x="160" y="256" style="fill:#F5F5F5;" width="24" height="24"/>
	<rect x="208" y="256" style="fill:#F5F5F5;" width="24" height="24"/>
	<rect x="256" y="256" style="fill:#F5F5F5;" width="24" height="24"/>
	<rect x="304" y="256" style="fill:#F5F5F5;" width="24" height="24"/>
	<rect x="352" y="256" style="fill:#F5F5F5;" width="24" height="24"/>
	<rect x="136" y="280" style="fill:#F5F5F5;" width="24" height="24"/>
	<rect x="184" y="280" style="fill:#F5F5F5;" width="24" height="24"/>
	<rect x="232" y="280" style="fill:#F5F5F5;" width="24" height="24"/>
	<rect x="280" y="280" style="fill:#F5F5F5;" width="24" height="24"/>
	<rect x="328" y="280" style="fill:#F5F5F5;" width="24" height="24"/>
	<rect x="376" y="280" style="fill:#F5F5F5;" width="24" height="24"/>
	<rect x="112" y="304" style="fill:#F5F5F5;" width="24" height="24"/>
	<rect x="160" y="304" style="fill:#F5F5F5;" width="24" height="24"/>
	<rect x="208" y="304" style="fill:#F5F5F5;" width="24" height="24"/>
	<rect x="256" y="304" style="fill:#F5F5F5;" width="24" height="24"/>
	<rect x="304" y="304" style="fill:#F5F5F5;" width="24" height="24"/>
	<rect x="352" y="304" style="fill:#F5F5F5;" width="24" height="24"/>
	<rect x="136" y="328" style="fill:#F5F5F5;" width="24" height="24"/>
	<rect x="184" y="328" style="fill:#F5F5F5;" width="24" height="24"/>
	<rect x="232" y="328" style="fill:#F5F5F5;" width="24" height="24"/>
	<rect x="280" y="328" style="fill:#F5F5F5;" width="24" height="24"/>
	<rect x="328" y="328" style="fill:#F5F5F5;" width="24" height="24"/>
	<rect x="376" y="328" style="fill:#F5F5F5;" width="24" height="24"/>
	<rect x="112" y="352" style="fill:#F5F5F5;" width="24" height="24"/>
	<rect x="160" y="352" style="fill:#F5F5F5;" width="24" height="24"/>
	<rect x="208" y="352" style="fill:#F5F5F5;" width="24" height="24"/>
	<rect x="256" y="352" style="fill:#F5F5F5;" width="24" height="24"/>
	<rect x="304" y="352" style="fill:#F5F5F5;" width="24" height="24"/>
	<rect x="352" y="352" style="fill:#F5F5F5;" width="24" height="24"/>
	<rect x="136" y="376" style="fill:#F5F5F5;" width="24" height="24"/>
	<rect x="184" y="376" style="fill:#F5F5F5;" width="24" height="24"/>
	<rect x="232" y="376" style="fill:#F5F5F5;" width="24" height="24"/>
	<rect x="280" y="376" style="fill:#F5F5F5;" width="24" height="24"/>
	<rect x="328" y="376" style="fill:#F5F5F5;" width="24" height="24"/>
	<rect x="376" y="376" style="fill:#F5F5F5;" width="24" height="24"/>
</g>
</svg>